HIERARCHY
ROOT root
{
	OFFSET 0.000000 0.054209 0.736571
	CHANNELS 6 Xposition Yposition Zposition Xrotation Yrotation Zrotation
	JOINT spine04
	{
		OFFSET 0.000000 -0.030951 0.078753
		CHANNELS 6 Xposition Yposition Zposition Xrotation Yrotation Zrotation
		JOINT spine02
		{
			OFFSET 0.000000 -0.000238 0.104623
			CHANNELS 6 Xposition Yposition Zposition Xrotation Yrotation Zrotation
			JOINT spine01
			{
				OFFSET 0.000000 0.017421 0.109292
				CHANNELS 3 Xrotation Yrotation Zrotation
				JOINT neck01
				{
					OFFSET 0.000000 -0.049753 0.167208
					CHANNELS 6 Xposition Yposition Zposition Xrotation Yrotation Zrotation
					JOINT neck02
					{
						OFFSET 0.000000 0.005512 0.021216
						CHANNELS 3 Xrotation Yrotation Zrotation
						JOINT jaw
						{
							OFFSET 0.000000 -0.043572 0.063270
							CHANNELS 6 Xposition Yposition Zposition Xrotation Yrotation Zrotation
							End Site
							{
								OFFSET 0.000000 -0.008974 0.006557
							}
						}
						JOINT eye.L
						{
							OFFSET 0.023674 -0.098121 0.090003
							CHANNELS 3 Xrotation Yrotation Zrotation
							End Site
							{
								OFFSET 0.001819 -0.030370 -0.004421
							}
						}
						JOINT orbicularis03.L
						{
							OFFSET 0.023674 -0.098121 0.090003
							CHANNELS 3 Xrotation Yrotation Zrotation
							End Site
							{
								OFFSET 0.001761 -0.029014 0.005250
							}
						}
						JOINT eye.R
						{
							OFFSET -0.023675 -0.098122 0.090003
							CHANNELS 3 Xrotation Yrotation Zrotation
							End Site
							{
								OFFSET -0.001819 -0.030370 -0.004421
							}
						}
						JOINT orbicularis03.R
						{
							OFFSET -0.023675 -0.098122 0.090003
							CHANNELS 3 Xrotation Yrotation Zrotation
							End Site
							{
								OFFSET -0.001761 -0.029014 0.005250
							}
						}
						End Site
						{
							OFFSET 0.000000 0.005512 0.021217
						}
					}
				}
				JOINT clavicle.R
				{
					OFFSET -0.018367 -0.058464 0.107155
					CHANNELS 6 Xposition Yposition Zposition Xrotation Yrotation Zrotation
					JOINT upperarm01.R
					{
						OFFSET -0.132020 0.003642 -0.024313
						CHANNELS 6 Xposition Yposition Zposition Xrotation Yrotation Zrotation
						JOINT lowerarm01.R
						{
							OFFSET -0.133637 0.001770 -0.153088
							CHANNELS 6 Xposition Yposition Zposition Xrotation Yrotation Zrotation
							JOINT wrist.R
							{
								OFFSET -0.108575 -0.154815 -0.103768
								CHANNELS 6 Xposition Yposition Zposition Xrotation Yrotation Zrotation
								JOINT finger2-1.R
								{
									OFFSET -0.024321 -0.084906 -0.032804
									CHANNELS 3 Xrotation Yrotation Zrotation
									JOINT finger2-2.R
									{
										OFFSET -0.002928 -0.018838 -0.012653
										CHANNELS 3 Xrotation Yrotation Zrotation
										JOINT finger2-3.R
										{
											OFFSET 0.000460 -0.015088 -0.013862
											CHANNELS 3 Xrotation Yrotation Zrotation
											End Site
											{
												OFFSET 0.003042 -0.016083 -0.016987
											}
										}
									}
								}
								JOINT finger3-1.R
								{
									OFFSET -0.038828 -0.069770 -0.043126
									CHANNELS 3 Xrotation Yrotation Zrotation
									JOINT finger3-2.R
									{
										OFFSET -0.006387 -0.018854 -0.022184
										CHANNELS 3 Xrotation Yrotation Zrotation
										JOINT finger3-3.R
										{
											OFFSET -0.002379 -0.015757 -0.018305
											CHANNELS 3 Xrotation Yrotation Zrotation
											End Site
											{
												OFFSET 0.000156 -0.013802 -0.019326
											}
										}
									}
								}
								JOINT finger4-1.R
								{
									OFFSET -0.045586 -0.054771 -0.050312
									CHANNELS 3 Xrotation Yrotation Zrotation
									JOINT finger4-2.R
									{
										OFFSET -0.008217 -0.013209 -0.021152
										CHANNELS 3 Xrotation Yrotation Zrotation
										JOINT finger4-3.R
										{
											OFFSET -0.003838 -0.011894 -0.018031
											CHANNELS 3 Xrotation Yrotation Zrotation
											End Site
											{
												OFFSET -0.002024 -0.010563 -0.020894
											}
										}
									}
								}
								JOINT finger5-1.R
								{
									OFFSET -0.046820 -0.037780 -0.058682
									CHANNELS 3 Xrotation Yrotation Zrotation
									JOINT finger5-2.R
									{
										OFFSET -0.005234 -0.007322 -0.016539
										CHANNELS 3 Xrotation Yrotation Zrotation
										JOINT finger5-3.R
										{
											OFFSET -0.001524 -0.005483 -0.012548
											CHANNELS 3 Xrotation Yrotation Zrotation
											End Site
											{
												OFFSET -0.002248 -0.006725 -0.016024
											}
										}
									}
								}
								JOINT finger1-1.R
								{
									OFFSET -0.000927 -0.039280 -0.005363
									CHANNELS 3 Xrotation Yrotation Zrotation
									JOINT finger1-2.R
									{
										OFFSET 0.018386 -0.018805 -0.006895
										CHANNELS 3 Xrotation Yrotation Zrotation
										JOINT finger1-3.R
										{
											OFFSET 0.010991 -0.028095 -0.011249
											CHANNELS 3 Xrotation Yrotation Zrotation
											End Site
											{
												OFFSET 0.004839 -0.019091 -0.014527
											}
										}
									}
								}
							}
						}
					}
				}
				JOINT clavicle.L
				{
					OFFSET 0.018367 -0.058464 0.107155
					CHANNELS 6 Xposition Yposition Zposition Xrotation Yrotation Zrotation
					JOINT upperarm01.L
					{
						OFFSET 0.132020 0.003642 -0.024313
						CHANNELS 6 Xposition Yposition Zposition Xrotation Yrotation Zrotation
						JOINT lowerarm01.L
						{
							OFFSET 0.133638 0.001770 -0.153088
							CHANNELS 6 Xposition Yposition Zposition Xrotation Yrotation Zrotation
							JOINT wrist.L
							{
								OFFSET 0.108574 -0.154814 -0.103768
								CHANNELS 6 Xposition Yposition Zposition Xrotation Yrotation Zrotation
								JOINT finger2-1.L
								{
									OFFSET 0.024321 -0.084906 -0.032804
									CHANNELS 3 Xrotation Yrotation Zrotation
									JOINT finger2-2.L
									{
										OFFSET 0.002927 -0.018838 -0.012653
										CHANNELS 3 Xrotation Yrotation Zrotation
										JOINT finger2-3.L
										{
											OFFSET -0.000460 -0.015088 -0.013862
											CHANNELS 3 Xrotation Yrotation Zrotation
											End Site
											{
												OFFSET -0.003042 -0.016083 -0.016987
											}
										}
									}
								}
								JOINT finger3-1.L
								{
									OFFSET 0.038828 -0.069770 -0.043127
									CHANNELS 3 Xrotation Yrotation Zrotation
									JOINT finger3-2.L
									{
										OFFSET 0.006387 -0.018854 -0.022184
										CHANNELS 3 Xrotation Yrotation Zrotation
										JOINT finger3-3.L
										{
											OFFSET 0.002379 -0.015757 -0.018305
											CHANNELS 3 Xrotation Yrotation Zrotation
											End Site
											{
												OFFSET -0.000156 -0.013802 -0.019326
											}
										}
									}
								}
								JOINT finger4-1.L
								{
									OFFSET 0.045586 -0.054771 -0.050312
									CHANNELS 3 Xrotation Yrotation Zrotation
									JOINT finger4-2.L
									{
										OFFSET 0.008217 -0.013209 -0.021152
										CHANNELS 3 Xrotation Yrotation Zrotation
										JOINT finger4-3.L
										{
											OFFSET 0.003838 -0.011894 -0.018031
											CHANNELS 3 Xrotation Yrotation Zrotation
											End Site
											{
												OFFSET 0.002024 -0.010563 -0.020894
											}
										}
									}
								}
								JOINT finger5-1.L
								{
									OFFSET 0.046820 -0.037780 -0.058682
									CHANNELS 3 Xrotation Yrotation Zrotation
									JOINT finger5-2.L
									{
										OFFSET 0.005233 -0.007322 -0.016539
										CHANNELS 3 Xrotation Yrotation Zrotation
										JOINT finger5-3.L
										{
											OFFSET 0.001524 -0.005484 -0.012548
											CHANNELS 3 Xrotation Yrotation Zrotation
											End Site
											{
												OFFSET 0.002248 -0.006725 -0.016023
											}
										}
									}
								}
								JOINT finger1-1.L
								{
									OFFSET 0.000927 -0.039280 -0.005363
									CHANNELS 3 Xrotation Yrotation Zrotation
									JOINT finger1-2.L
									{
										OFFSET -0.018386 -0.018805 -0.006895
										CHANNELS 3 Xrotation Yrotation Zrotation
										JOINT finger1-3.L
										{
											OFFSET -0.010991 -0.028095 -0.011249
											CHANNELS 3 Xrotation Yrotation Zrotation
											End Site
											{
												OFFSET -0.004839 -0.019091 -0.014527
											}
										}
									}
								}
							}
						}
					}
				}
			}
		}
	}
	JOINT upperleg01.R
	{
		OFFSET -0.087495 -0.048056 0.004242
		CHANNELS 6 Xposition Yposition Zposition Xrotation Yrotation Zrotation
		JOINT lowerleg01.R
		{
			OFFSET -0.034522 -0.027831 -0.333803
			CHANNELS 6 Xposition Yposition Zposition Xrotation Yrotation Zrotation
			JOINT foot.R
			{
				OFFSET -0.037458 0.009412 -0.349633
				CHANNELS 3 Xrotation Yrotation Zrotation
				JOINT toe1-1.R
				{
					OFFSET -0.003290 -0.101211 -0.050981
					CHANNELS 6 Xposition Yposition Zposition Xrotation Yrotation Zrotation
					End Site
					{
						OFFSET 0.000524 -0.066142 0.003009
					}
				}
			}
		}
	}
	JOINT upperleg01.L
	{
		OFFSET 0.087495 -0.048056 0.004242
		CHANNELS 6 Xposition Yposition Zposition Xrotation Yrotation Zrotation
		JOINT lowerleg01.L
		{
			OFFSET 0.034522 -0.027831 -0.333803
			CHANNELS 6 Xposition Yposition Zposition Xrotation Yrotation Zrotation
			JOINT foot.L
			{
				OFFSET 0.037458 0.009413 -0.349633
				CHANNELS 3 Xrotation Yrotation Zrotation
				JOINT toe1-1.L
				{
					OFFSET 0.003290 -0.101211 -0.050981
					CHANNELS 6 Xposition Yposition Zposition Xrotation Yrotation Zrotation
					End Site
					{
						OFFSET -0.000524 -0.066142 0.003009
					}
				}
			}
		}
	}
}
MOTION
Frames: 5
Frame Time:	0.016667
0 0.0542 0.7366 0 0 0 0 -0.0506 0.0788 0 0 0 0 -0.0232 0.1046 0 0 0 0 0 0 0 -0.0498 0.1672 0 0 0 0 0 0 0 -0.0436 0.0633 0 0 0 0 0 0 0 0 0 0 0 0 0 0 0 -0.0184 -0.0585 0.1072 0 0 0 -0.1356 -0.0037 -0.0169 0 0 0 -0.1336 0.0018 -0.1531 0 0 0 -0.1086 -0.1548 -0.1038 0 0 0 0 0 0 0 0 0 0 0 0 0 0 0 0 0 0 0 0 0 0 0 0 0 0 0 0 0 0 0 0 0 0 0 0 0 0 0 0 0 0 0 0 0 0 0 0 0.0184 -0.0585 0.1072 0 0 0 0.1356 -0.0037 -0.0169 0 0 0 0.1336 0.0018 -0.1531 0 0 0 0.1086 -0.1548 -0.1038 0 0 0 0 0 0 0 0 0 0 0 0 0 0 0 0 0 0 0 0 0 0 0 0 0 0 0 0 0 0 0 0 0 0 0 0 0 0 0 0 0 0 0 0 0 0 0 0 -0.0875 -0.0481 0.0042 0 0 0 -0.0345 -0.0278 -0.3338 0 0 0 0 0 0 -0.0033 -0.1012 -0.051 0 0 0 0.0875 -0.0481 0.0042 0 0 0 0.0345 -0.0278 -0.3338 0 0 0 0 0 0 0.0033 -0.1012 -0.051 0 0 0 
0.9142 0.3513 0.7146 -2.5802 4.2515 -78.2646 -0.0002 -0.0361 0.0728 1.5908 0.706 0.5584 -0.0002 -0.0025 0.0974 1.836 -0.4589 0.5907 0 0 0 0 -0.0432 0.1617 15.6 2.3898 9.0393 10.3564 -0.9406 12.5685 0 -0.0436 0.0633 -0.0001 0 0 3.0287 -0.0814 -3.0781 0 0 0 3.0701 -0.0576 -2.1469 0 0 0 -0.0184 -0.0583 0.107 0.0869 -4.6052 -1.5082 -0.1356 -0.0037 -0.0169 26.0018 -16.5036 9.1315 -0.1337 0.0017 -0.1531 -38.1165 -27.6045 63.2533 -0.1085 -0.1549 -0.1036 16.9072 15.7567 -32.5293 17.1756 -18.4815 6.2711 22.5688 -14.8859 17.3988 28.9804 -16.0277 22.1958 -5.7209 -4.0078 1.5154 12.9491 -16.8896 8.0825 10.4444 -15.5966 6.7581 31.2839 -38.1174 38.6058 53.9201 -43.2427 48.8461 51.749 -44.1223 49.705 3.9675 -31.0752 16.1405 24.4347 -37.2674 16.0949 28.9342 -41.1067 21.6773 -9.7035 -35.6212 -29.4492 7.398 8.8861 -17.8653 -1.3946 13.9528 -28.3296 0.0184 -0.0583 0.107 -0.6282 3.3224 -2.9836 0.1356 -0.0037 -0.0169 12.6705 -1.9511 -24.6046 0.1335 0.0017 -0.1531 -9.1965 4.5075 -44.4576 0.1085 -0.1547 -0.1037 -39.6317 -60.7512 -58.2705 41.001 24.0744 -30.7003 45.4312 17.39 -39.1902 50.3956 16.8327 -42.7897 -7.7962 0.9515 0.2796 10.6722 14.4417 -5.7623 8.5296 13.4329 -4.8695 -10.3401 0.7378 -2.7615 10.2093 15.9266 -3.3088 6.721 16.1368 -3.9234 -13.7337 6.5199 -3.3306 8.178 15.6898 -0.0129 10.1362 20.6857 -3.0935 -8.983 33.6408 21.2591 20.0309 -14.3956 39.8642 14.0503 -20.2544 51.6688 -0.0875 -0.0481 0.0042 2.7678 3.662 -25.1742 -0.0345 -0.0278 -0.3338 7.19 2.2461 -0.8487 -3.7419 -5.6933 -8.1545 -0.0033 -0.1012 -0.051 -0.8597 0 0 0.0875 -0.0481 0.0042 1.1089 6.1225 -4.0923 0.0345 -0.0278 -0.3338 5.1165 0.2332 0.5438 -4.1889 -7.6628 -1.0417 0.0033 -0.1012 -0.051 0 0 0 
0.9142 0.3513 0.7146 -2.5802 4.2515 -78.2646 -0.0002 -0.0361 0.0728 1.5908 0.706 0.5584 -0.0002 -0.0025 0.0974 1.836 -0.4589 0.5907 0 0 0 0 -0.0432 0.1617 15.6 2.3898 9.0393 10.3564 -0.9406 12.5685 0 -0.0436 0.0633 -0.0001 -0.0001 0 3.0287 -0.0814 -3.0781 0 0 0 3.0701 -0.0576 -2.1468 0 0 0.0001 -0.0184 -0.0583 0.107 0.0869 -4.6052 -1.5081 -0.1356 -0.0037 -0.0169 26.0017 -16.5036 9.1315 -0.1337 0.0017 -0.1531 -38.1165 -27.6044 63.2533 -0.1085 -0.1549 -0.1036 16.9072 15.7566 -32.5293 17.1756 -18.4815 6.2711 22.5688 -14.8859 17.3988 28.9804 -16.0277 22.1959 -5.7209 -4.0078 1.5154 12.9491 -16.8896 8.0824 10.4444 -15.5966 6.7581 31.2839 -38.1173 38.6057 53.9201 -43.2427 48.8461 51.749 -44.1223 49.705 3.9675 -31.0753 16.1405 24.4347 -37.2674 16.0949 28.9342 -41.1067 21.6773 -9.7035 -35.6211 -29.4492 7.398 8.8861 -17.8653 -1.3946 13.9527 -28.3295 0.0184 -0.0583 0.107 -0.6282 3.3224 -2.9836 0.1356 -0.0037 -0.0169 12.6705 -1.9512 -24.6046 0.1335 0.0017 -0.1531 -9.1965 4.5076 -44.4576 0.1085 -0.1547 -0.1037 -39.6317 -60.7512 -58.2705 41.001 24.0744 -30.7003 45.4313 17.39 -39.1902 50.3956 16.8326 -42.7897 -7.7962 0.9515 0.2796 10.6723 14.4417 -5.7623 8.5296 13.4329 -4.8695 -10.3401 0.7378 -2.7615 10.2093 15.9266 -3.3088 6.721 16.1368 -3.9234 -13.7337 6.5199 -3.3306 8.178 15.6898 -0.013 10.1362 20.6857 -3.0935 -8.983 33.6408 21.2591 20.0309 -14.3956 39.8642 14.0503 -20.2544 51.6687 -0.0875 -0.0481 0.0042 2.7678 3.662 -25.1742 -0.0345 -0.0278 -0.3338 7.19 2.2461 -0.8487 -3.7419 -5.6933 -8.1545 -0.0033 -0.1012 -0.051 -0.8597 0 0 0.0875 -0.0481 0.0042 1.1089 6.1225 -4.0923 0.0345 -0.0278 -0.3338 5.1165 0.2332 0.5438 -4.1889 -7.6627 -1.0417 0.0033 -0.1012 -0.051 0 0 0 
0.9142 0.3513 0.7146 -2.5802 4.2515 -78.2646 -0.0002 -0.0361 0.0728 1.5908 0.706 0.5584 -0.0002 -0.0025 0.0974 1.836 -0.4589 0.5907 0 0 0 0 -0.0432 0.1617 15.6 2.3898 9.0393 10.3564 -0.9406 12.5685 0 -0.0436 0.0633 -0.0001 -0.0001 0.0001 3.0287 -0.0814 -3.0781 0 0 0.0001 3.0701 -0.0576 -2.1469 0 0 0.0001 -0.0184 -0.0583 0.107 0.0869 -4.6052 -1.5082 -0.1356 -0.0037 -0.0169 26.0017 -16.5036 9.1315 -0.1337 0.0017 -0.1531 -38.1165 -27.6045 63.2533 -0.1085 -0.1549 -0.1036 16.9072 15.7566 -32.5294 17.1756 -18.4815 6.2711 22.5689 -14.8859 17.3988 28.9804 -16.0277 22.1959 -5.7209 -4.0078 1.5154 12.9491 -16.8896 8.0825 10.4444 -15.5966 6.7581 31.2839 -38.1173 38.6058 53.9201 -43.2427 48.8461 51.7491 -44.1224 49.7051 3.9675 -31.0753 16.1405 24.4347 -37.2674 16.0949 28.9342 -41.1067 21.6773 -9.7035 -35.6211 -29.4491 7.398 8.8861 -17.8653 -1.3946 13.9528 -28.3295 0.0184 -0.0583 0.107 -0.6282 3.3224 -2.9836 0.1356 -0.0037 -0.0169 12.6705 -1.9512 -24.6046 0.1335 0.0017 -0.1531 -9.1965 4.5076 -44.4576 0.1085 -0.1547 -0.1037 -39.6317 -60.7512 -58.2705 41.001 24.0744 -30.7003 45.4312 17.39 -39.1902 50.3956 16.8326 -42.7897 -7.7962 0.9515 0.2796 10.6722 14.4417 -5.7623 8.5296 13.4329 -4.8695 -10.3401 0.7378 -2.7615 10.2093 15.9266 -3.3088 6.721 16.1368 -3.9234 -13.7337 6.5199 -3.3306 8.178 15.6898 -0.0129 10.1362 20.6857 -3.0935 -8.983 33.6408 21.2591 20.0309 -14.3956 39.8642 14.0503 -20.2544 51.6687 -0.0875 -0.0481 0.0042 2.7678 3.662 -25.1742 -0.0345 -0.0278 -0.3338 7.19 2.2461 -0.8487 -3.7419 -5.6933 -8.1545 -0.0033 -0.1012 -0.051 -0.8597 0 -0.0001 0.0875 -0.0481 0.0042 1.1089 6.1225 -4.0923 0.0345 -0.0278 -0.3338 5.1165 0.2332 0.5438 -4.1889 -7.6627 -1.0417 0.0033 -0.1012 -0.051 0 0 0 
0.9142 0.3513 0.7146 -2.5802 4.2515 -78.2646 -0.0002 -0.0361 0.0728 1.5908 0.706 0.5584 -0.0002 -0.0025 0.0974 1.836 -0.4589 0.5907 0 0 0 0 -0.0432 0.1617 15.6 2.3898 9.0393 10.3564 -0.9406 12.5685 0 -0.0436 0.0633 -0.0001 -0.0001 0.0001 3.0287 -0.0814 -3.0781 0 0 0.0001 3.0701 -0.0576 -2.1469 0 0 0.0001 -0.0184 -0.0583 0.107 0.0869 -4.6052 -1.5082 -0.1356 -0.0037 -0.0169 26.0017 -16.5037 9.1315 -0.1337 0.0017 -0.1531 -38.1165 -27.6045 63.2533 -0.1085 -0.1549 -0.1036 16.9072 15.7566 -32.5294 17.1756 -18.4815 6.2711 22.5688 -14.8859 17.3988 28.9804 -16.0277 22.1959 -5.7209 -4.0078 1.5154 12.9491 -16.8897 8.0825 10.4444 -15.5966 6.7581 31.2839 -38.1173 38.6058 53.9201 -43.2426 48.8461 51.749 -44.1224 49.705 3.9675 -31.0752 16.1405 24.4347 -37.2674 16.0949 28.9343 -41.1067 21.6773 -9.7035 -35.6211 -29.4491 7.398 8.8861 -17.8653 -1.3946 13.9528 -28.3295 0.0184 -0.0583 0.107 -0.6282 3.3224 -2.9836 0.1356 -0.0037 -0.0169 12.6705 -1.9512 -24.6046 0.1335 0.0017 -0.1531 -9.1965 4.5076 -44.4576 0.1085 -0.1547 -0.1037 -39.6317 -60.7512 -58.2705 41.001 24.0744 -30.7003 45.4313 17.39 -39.1902 50.3956 16.8326 -42.7897 -7.7962 0.9515 0.2796 10.6722 14.4417 -5.7623 8.5296 13.4329 -4.8695 -10.3401 0.7379 -2.7615 10.2093 15.9266 -3.3088 6.721 16.1368 -3.9234 -13.7337 6.5199 -3.3306 8.178 15.6898 -0.0129 10.1362 20.6857 -3.0935 -8.983 33.6408 21.2591 20.0309 -14.3956 39.8642 14.0503 -20.2544 51.6687 -0.0875 -0.0481 0.0042 2.7678 3.662 -25.1742 -0.0345 -0.0278 -0.3338 7.19 2.2461 -0.8487 -3.7419 -5.6933 -8.1545 -0.0033 -0.1012 -0.051 -0.8597 0 -0.0001 0.0875 -0.0481 0.0042 1.1089 6.1225 -4.0923 0.0345 -0.0278 -0.3338 5.1165 0.2332 0.5438 -4.1889 -7.6627 -1.0417 0.0033 -0.1012 -0.051 0 0 0 
